<?xml version="1.0" encoding="utf-8"?>
<!-- Generator: Adobe Illustrator 22.0.0, SVG Export Plug-In . SVG Version: 6.00 Build 0)  -->
<svg version="1.1" id="b6c6e6a1-7972-47e7-be8d-743e88a832d8"
	 xmlns="http://www.w3.org/2000/svg" xmlns:xlink="http://www.w3.org/1999/xlink" x="0px" y="0px" viewBox="0 0 948.4 758"
	 style="enable-background:new 0 0 948.4 758;" xml:space="preserve">
<style type="text/css">
	.st0{opacity:0.1;fill:#F99B26;enable-background:new    ;}
	.st1{fill:#F99B26;}
	.st2{fill:#46455B;}
	.st3{fill:#3F3D56;}
	.st4{opacity:0.1;enable-background:new    ;}
	.st5{display:none;fill:#F99B26;}
	.st6{fill:#A8A8A8;}
	.st7{opacity:0.2;enable-background:new    ;}
	.st8{fill:#A0616A;}
	.st9{fill:#2F2E41;}
	.st10{fill:#D0CDE1;}
</style>
<title>teaching</title>
<path class="st0" d="M201.3,130h71.1c4.1,0,7.4,3.3,7.4,7.4v11.1c0,4.1-3.3,7.4-7.4,7.4h-71.1c-4.1,0-7.4-3.3-7.4-7.4v-11.1
	C193.9,133.3,197.2,130,201.3,130z"/>
<path class="st0" d="M291.3,156h71.1c4.1,0,7.4,3.3,7.4,7.4v11.1c0,4.1-3.3,7.4-7.4,7.4h-71.1c-4.1,0-7.4-3.3-7.4-7.4v-11.1
	C283.9,159.3,287.2,156,291.3,156z"/>
<path class="st0" d="M381.3,182h71.1c4.1,0,7.4,3.3,7.4,7.4v11.1c0,4.1-3.3,7.4-7.4,7.4h-71.1c-4.1,0-7.4-3.3-7.4-7.4v-11.1
	C373.9,185.3,377.2,182,381.3,182z"/>
<path class="st0" d="M201.3,91h71.1c4.1,0,7.4,3.3,7.4,7.4v11.1c0,4.1-3.3,7.4-7.4,7.4h-71.1c-4.1,0-7.4-3.3-7.4-7.4V98.4
	C193.9,94.3,197.2,91,201.3,91z"/>
<path class="st0" d="M291.3,117h71.1c4.1,0,7.4,3.3,7.4,7.4v11.1c0,4.1-3.3,7.4-7.4,7.4h-71.1c-4.1,0-7.4-3.3-7.4-7.4v-11.1
	C283.9,120.3,287.2,117,291.3,117z"/>
<path class="st0" d="M381.3,143h71.1c4.1,0,7.4,3.3,7.4,7.4v11.1c0,4.1-3.3,7.4-7.4,7.4h-71.1c-4.1,0-7.4-3.3-7.4-7.4v-11.1
	C373.9,146.3,377.2,143,381.3,143z"/>
<path class="st0" d="M481.3,130h71.1c4.1,0,7.4,3.3,7.4,7.4v11.1c0,4.1-3.3,7.4-7.4,7.4h-71.1c-4.1,0-7.4-3.3-7.4-7.4v-11.1
	C473.9,133.3,477.2,130,481.3,130z"/>
<path class="st0" d="M571.3,156h71.1c4.1,0,7.4,3.3,7.4,7.4v11.1c0,4.1-3.3,7.4-7.4,7.4h-71.1c-4.1,0-7.4-3.3-7.4-7.4v-11.1
	C563.9,159.3,567.2,156,571.3,156z"/>
<path class="st0" d="M661.3,182h71.1c4.1,0,7.4,3.3,7.4,7.4v11.1c0,4.1-3.3,7.4-7.4,7.4h-71.1c-4.1,0-7.4-3.3-7.4-7.4v-11.1
	C653.9,185.3,657.2,182,661.3,182z"/>
<path class="st0" d="M481.3,91h71.1c4.1,0,7.4,3.3,7.4,7.4v11.1c0,4.1-3.3,7.4-7.4,7.4h-71.1c-4.1,0-7.4-3.3-7.4-7.4V98.4
	C473.9,94.3,477.2,91,481.3,91z"/>
<path class="st0" d="M571.3,117h71.1c4.1,0,7.4,3.3,7.4,7.4v11.1c0,4.1-3.3,7.4-7.4,7.4h-71.1c-4.1,0-7.4-3.3-7.4-7.4v-11.1
	C563.9,120.3,567.2,117,571.3,117z"/>
<path class="st0" d="M661.3,143h71.1c4.1,0,7.4,3.3,7.4,7.4v11.1c0,4.1-3.3,7.4-7.4,7.4h-71.1c-4.1,0-7.4-3.3-7.4-7.4v-11.1
	C653.9,146.3,657.2,143,661.3,143z"/>
<path class="st0" d="M201.3,39h71.1c4.1,0,7.4,3.3,7.4,7.4v11.1c0,4.1-3.3,7.4-7.4,7.4h-71.1c-4.1,0-7.4-3.3-7.4-7.4V46.4
	C193.9,42.3,197.2,39,201.3,39z"/>
<path class="st0" d="M291.3,65h71.1c4.1,0,7.4,3.3,7.4,7.4v11.1c0,4.1-3.3,7.4-7.4,7.4h-71.1c-4.1,0-7.4-3.3-7.4-7.4V72.4
	C283.9,68.3,287.2,65,291.3,65z"/>
<path class="st0" d="M381.3,91h71.1c4.1,0,7.4,3.3,7.4,7.4v11.1c0,4.1-3.3,7.4-7.4,7.4h-71.1c-4.1,0-7.4-3.3-7.4-7.4V98.4
	C373.9,94.3,377.2,91,381.3,91z"/>
<path class="st0" d="M201.3,0h71.1c4.1,0,7.4,3.3,7.4,7.4v11.1c0,4.1-3.3,7.4-7.4,7.4h-71.1c-4.1,0-7.4-3.3-7.4-7.4V7.4
	C193.9,3.3,197.2,0,201.3,0z"/>
<path class="st0" d="M291.3,26h71.1c4.1,0,7.4,3.3,7.4,7.4v11.1c0,4.1-3.3,7.4-7.4,7.4h-71.1c-4.1,0-7.4-3.3-7.4-7.4V33.4
	C283.9,29.3,287.2,26,291.3,26z"/>
<path class="st0" d="M381.3,52h71.1c4.1,0,7.4,3.3,7.4,7.4v11.1c0,4.1-3.3,7.4-7.4,7.4h-71.1c-4.1,0-7.4-3.3-7.4-7.4V59.4
	C373.9,55.3,377.2,52,381.3,52z"/>
<path class="st0" d="M481.3,39h71.1c4.1,0,7.4,3.3,7.4,7.4v11.1c0,4.1-3.3,7.4-7.4,7.4h-71.1c-4.1,0-7.4-3.3-7.4-7.4V46.4
	C473.9,42.3,477.2,39,481.3,39z"/>
<path class="st0" d="M571.3,65h71.1c4.1,0,7.4,3.3,7.4,7.4v11.1c0,4.1-3.3,7.4-7.4,7.4h-71.1c-4.1,0-7.4-3.3-7.4-7.4V72.4
	C563.9,68.3,567.2,65,571.3,65z"/>
<path class="st0" d="M661.3,91h71.1c4.1,0,7.4,3.3,7.4,7.4v11.1c0,4.1-3.3,7.4-7.4,7.4h-71.1c-4.1,0-7.4-3.3-7.4-7.4V98.4
	C653.9,94.3,657.2,91,661.3,91z"/>
<path class="st0" d="M481.3,0h71.1c4.1,0,7.4,3.3,7.4,7.4v11.1c0,4.1-3.3,7.4-7.4,7.4h-71.1c-4.1,0-7.4-3.3-7.4-7.4V7.4
	C473.9,3.3,477.2,0,481.3,0z"/>
<path class="st0" d="M571.3,26h71.1c4.1,0,7.4,3.3,7.4,7.4v11.1c0,4.1-3.3,7.4-7.4,7.4h-71.1c-4.1,0-7.4-3.3-7.4-7.4V33.4
	C563.9,29.3,567.2,26,571.3,26z"/>
<path class="st0" d="M661.3,52h71.1c4.1,0,7.4,3.3,7.4,7.4v11.1c0,4.1-3.3,7.4-7.4,7.4h-71.1c-4.1,0-7.4-3.3-7.4-7.4V59.4
	C653.9,55.3,657.2,52,661.3,52z"/>
<path class="st0" d="M201.3,593h71.1c4.1,0,7.4,3.3,7.4,7.4v11.1c0,4.1-3.3,7.4-7.4,7.4h-71.1c-4.1,0-7.4-3.3-7.4-7.4v-11.1
	C193.9,596.3,197.2,593,201.3,593z"/>
<path class="st0" d="M291.3,619h71.1c4.1,0,7.4,3.3,7.4,7.4v11.1c0,4.1-3.3,7.4-7.4,7.4h-71.1c-4.1,0-7.4-3.3-7.4-7.4v-11.1
	C283.9,622.3,287.2,619,291.3,619z"/>
<path class="st0" d="M381.3,645h71.1c4.1,0,7.4,3.3,7.4,7.4v11.1c0,4.1-3.3,7.4-7.4,7.4h-71.1c-4.1,0-7.4-3.3-7.4-7.4v-11.1
	C373.9,648.3,377.2,645,381.3,645z"/>
<path class="st0" d="M201.3,554h71.1c4.1,0,7.4,3.3,7.4,7.4v11.1c0,4.1-3.3,7.4-7.4,7.4h-71.1c-4.1,0-7.4-3.3-7.4-7.4v-11.1
	C193.9,557.3,197.2,554,201.3,554z"/>
<path class="st0" d="M291.3,580h71.1c4.1,0,7.4,3.3,7.4,7.4v11.1c0,4.1-3.3,7.4-7.4,7.4h-71.1c-4.1,0-7.4-3.3-7.4-7.4v-11.1
	C283.9,583.3,287.2,580,291.3,580z"/>
<path class="st0" d="M381.3,606h71.1c4.1,0,7.4,3.3,7.4,7.4v11.1c0,4.1-3.3,7.4-7.4,7.4h-71.1c-4.1,0-7.4-3.3-7.4-7.4v-11.1
	C373.9,609.3,377.2,606,381.3,606z"/>
<path class="st0" d="M481.3,593h71.1c4.1,0,7.4,3.3,7.4,7.4v11.1c0,4.1-3.3,7.4-7.4,7.4h-71.1c-4.1,0-7.4-3.3-7.4-7.4v-11.1
	C473.9,596.3,477.2,593,481.3,593z"/>
<path class="st0" d="M571.3,619h71.1c4.1,0,7.4,3.3,7.4,7.4v11.1c0,4.1-3.3,7.4-7.4,7.4h-71.1c-4.1,0-7.4-3.3-7.4-7.4v-11.1
	C563.9,622.3,567.2,619,571.3,619z"/>
<path class="st0" d="M661.3,645h71.1c4.1,0,7.4,3.3,7.4,7.4v11.1c0,4.1-3.3,7.4-7.4,7.4h-71.1c-4.1,0-7.4-3.3-7.4-7.4v-11.1
	C653.9,648.3,657.2,645,661.3,645z"/>
<path class="st0" d="M481.3,554h71.1c4.1,0,7.4,3.3,7.4,7.4v11.1c0,4.1-3.3,7.4-7.4,7.4h-71.1c-4.1,0-7.4-3.3-7.4-7.4v-11.1
	C473.9,557.3,477.2,554,481.3,554z"/>
<path class="st0" d="M571.3,580h71.1c4.1,0,7.4,3.3,7.4,7.4v11.1c0,4.1-3.3,7.4-7.4,7.4h-71.1c-4.1,0-7.4-3.3-7.4-7.4v-11.1
	C563.9,583.3,567.2,580,571.3,580z"/>
<path class="st0" d="M661.3,606h71.1c4.1,0,7.4,3.3,7.4,7.4v11.1c0,4.1-3.3,7.4-7.4,7.4h-71.1c-4.1,0-7.4-3.3-7.4-7.4v-11.1
	C653.9,609.3,657.2,606,661.3,606z"/>
<path class="st0" d="M201.3,502h71.1c4.1,0,7.4,3.3,7.4,7.4v11.1c0,4.1-3.3,7.4-7.4,7.4h-71.1c-4.1,0-7.4-3.3-7.4-7.4v-11.1
	C193.9,505.3,197.2,502,201.3,502z"/>
<path class="st0" d="M291.3,528h71.1c4.1,0,7.4,3.3,7.4,7.4v11.1c0,4.1-3.3,7.4-7.4,7.4h-71.1c-4.1,0-7.4-3.3-7.4-7.4v-11.1
	C283.9,531.3,287.2,528,291.3,528z"/>
<path class="st0" d="M381.3,554h71.1c4.1,0,7.4,3.3,7.4,7.4v11.1c0,4.1-3.3,7.4-7.4,7.4h-71.1c-4.1,0-7.4-3.3-7.4-7.4v-11.1
	C373.9,557.3,377.2,554,381.3,554z"/>
<path class="st0" d="M201.3,463h71.1c4.1,0,7.4,3.3,7.4,7.4v11.1c0,4.1-3.3,7.4-7.4,7.4h-71.1c-4.1,0-7.4-3.3-7.4-7.4v-11.1
	C193.9,466.3,197.2,463,201.3,463z"/>
<path class="st0" d="M291.3,489h71.1c4.1,0,7.4,3.3,7.4,7.4v11.1c0,4.1-3.3,7.4-7.4,7.4h-71.1c-4.1,0-7.4-3.3-7.4-7.4v-11.1
	C283.9,492.3,287.2,489,291.3,489z"/>
<path class="st0" d="M381.3,515h71.1c4.1,0,7.4,3.3,7.4,7.4v11.1c0,4.1-3.3,7.4-7.4,7.4h-71.1c-4.1,0-7.4-3.3-7.4-7.4v-11.1
	C373.9,518.3,377.2,515,381.3,515z"/>
<path class="st0" d="M481.3,502h71.1c4.1,0,7.4,3.3,7.4,7.4v11.1c0,4.1-3.3,7.4-7.4,7.4h-71.1c-4.1,0-7.4-3.3-7.4-7.4v-11.1
	C473.9,505.3,477.2,502,481.3,502z"/>
<path class="st0" d="M571.3,528h71.1c4.1,0,7.4,3.3,7.4,7.4v11.1c0,4.1-3.3,7.4-7.4,7.4h-71.1c-4.1,0-7.4-3.3-7.4-7.4v-11.1
	C563.9,531.3,567.2,528,571.3,528z"/>
<path class="st0" d="M661.3,554h71.1c4.1,0,7.4,3.3,7.4,7.4v11.1c0,4.1-3.3,7.4-7.4,7.4h-71.1c-4.1,0-7.4-3.3-7.4-7.4v-11.1
	C653.9,557.3,657.2,554,661.3,554z"/>
<path class="st0" d="M481.3,463h71.1c4.1,0,7.4,3.3,7.4,7.4v11.1c0,4.1-3.3,7.4-7.4,7.4h-71.1c-4.1,0-7.4-3.3-7.4-7.4v-11.1
	C473.9,466.3,477.2,463,481.3,463z"/>
<path class="st0" d="M571.3,489h71.1c4.1,0,7.4,3.3,7.4,7.4v11.1c0,4.1-3.3,7.4-7.4,7.4h-71.1c-4.1,0-7.4-3.3-7.4-7.4v-11.1
	C563.9,492.3,567.2,489,571.3,489z"/>
<path class="st0" d="M661.3,515h71.1c4.1,0,7.4,3.3,7.4,7.4v11.1c0,4.1-3.3,7.4-7.4,7.4h-71.1c-4.1,0-7.4-3.3-7.4-7.4v-11.1
	C653.9,518.3,657.2,515,661.3,515z"/>
<ellipse class="st0" cx="482.4" cy="722" rx="438.5" ry="36"/>
<path class="st1" d="M84.7,186.8c41.4,17.9,65.1,55,65.1,55s-43.3,8-84.6-9.9S0,176.9,0,176.9S43.3,168.9,84.7,186.8z"/>
<path class="st1" d="M211.5,118c12.8-21,34.6-31,34.6-31s1,23.9-11.8,44.9s-34.6,30.9-34.6,30.9S198.8,138.9,211.5,118z"/>
<path class="st2" d="M117.5,140.5c9.1,32.7,34.4,54.2,34.4,54.2s10.4-31.5,1.2-64.1s-34.4-54.2-34.4-54.2S108.4,107.8,117.5,140.5z"
	/>
<path class="st3" d="M126.1,139h714.6c4,0,7.2,3.2,7.2,7.2v350.6c0,4-3.2,7.2-7.2,7.2H126.1c-4,0-7.2-3.2-7.2-7.2V146.2
	C118.9,142.2,122.1,139,126.1,139z"/>
<path class="st4" d="M118.9,482h729l0,0v14.8c0,4-3.2,7.2-7.2,7.2l0,0H126.1c-4,0-7.2-3.2-7.2-7.2V482L118.9,482z"/>
<path class="st1" d="M688.4,455h49c1.4,0,2.5,1.1,2.5,2.5v22c0,1.4-1.1,2.5-2.5,2.5h-49c-1.4,0-2.5-1.1-2.5-2.5v-22
	C685.9,456.1,687,455,688.4,455z"/>
<path class="st1" d="M765.8,480h33c1.1,0,2,0.9,2,2l0,0c0,1.1-0.9,2-2,2h-33c-1.1,0-2-0.9-2-2l0,0C763.8,480.9,764.7,480,765.8,480z
	"/>
<path class="st1" d="M406.5,208.2c26.4,4.9,53.3,0,79.6-3.3l79.9-10c3.2-0.4,7.9-2.3,9.8,1.6c1.1,2.2,0.3,7,0.4,9.5
	c0.2,7,0.2,14,0,21c-0.4,13.4-1.3,26.7-2.6,40c-2.4,26.1-5.9,52-7.6,78.2c-0.9,13.3-1.3,26.7-0.9,40c0.1,3.2,0.2,6.4,0.4,9.5
	c0.2,3.5,1.8,8.8-2.1,11.2c-2.2,1.4-6.6,1.3-9.1,1.7c-4,0.6-8,1.1-12.1,1.5c-26.9,2.7-54.1,1.6-81.1,1.4l-81.5-0.4l-19.9-0.1
	c-1.8,0-8.3,1.1-9.4-1.1c-0.5-0.9,0.8-5.2,1-6.3c0.3-1.9,0.6-3.8,1-5.6c2.3-13.1,5.1-26.2,7.8-39.3c5.9-28,12-56.1,14.4-84.7
	c1.2-14.4,0.4-28.8,1.9-43.1c0.7-6.6,1.5-21.5,10.4-22.1c7.5-0.5,15.2,0,22.7,0c0.8,0,1.5-0.7,1.5-1.5s-0.7-1.5-1.5-1.5
	c-7.1,0-14.2-0.2-21.3,0c-4.7,0.1-8,1.2-10.2,5.5c-5.8,11.1-5.2,26-5.3,38.2c-0.4,29.1-4.9,57.6-10.7,86.1c-2.9,14.3-6.1,28.6-9,43
	c-1.4,6.9-2.7,13.7-3.9,20.6c-0.6,3.3-3.4,10.5-0.9,13.5s10.1,1.4,13.6,1.4l23.9,0.1l45.7,0.3c29.5,0.2,59.2,1,88.7,0.1
	c14.1-0.4,29-1,42.7-4.4c4.1-1,6.1-2.9,6.2-7.2c0.2-6.8-0.9-13.7-1-20.5c-1-58.1,12.7-115.4,11.2-173.5c-0.1-4,1.4-13.9-2.9-16.3
	c-1.9-1.1-4.5-0.5-6.5-0.2c-3.9,0.5-7.8,1-11.7,1.5l-50.6,6.3c-16.2,2-32.4,4.2-48.6,6c-17.2,2-34.5,3.2-51.6,0
	c-1.9-0.4-2.7,2.5-0.8,2.9L406.5,208.2z"/>
<path class="st1" d="M374.3,273.4l199.8-9.8c1.9-0.1,1.9-3.1,0-3l-199.8,9.8C372.4,270.5,372.3,273.5,374.3,273.4z"/>
<path class="st5" d="M437.9,239.8c-1.9,2-1.8,5.2,0.2,7.1c0.5,0.4,1,0.8,1.6,1c2.7,1.2,5.9,0.2,8.5-0.5c4-1,8-1.9,12.1-2.6
	c8.9-1.6,18-2.4,27.1-2.5c4.1,0,8.2,0.1,12.4,0.3c3,0.1,6.2,0.4,8.8-1.5c2.9-2.1,3.8-6.3,1-8.8c-4-3.6-12.6-1.5-17.2-1.1
	c-16.8,1.4-33.4,3.9-49.9,7.4c-1.9,0.4-1.1,3.3,0.8,2.9c10.8-2.3,21.8-4.2,32.8-5.6c5.4-0.7,10.8-1.2,16.3-1.7
	c2.6-0.2,5.1-0.4,7.7-0.5c1-0.1,2.1-0.2,3.1-0.1c3.2,0.1,3.5-0.5,1.6,3.3c-1.7,3.4-1.1,3-4.1,2.9c-1.2,0-2.5-0.1-3.7-0.2
	c-2.5-0.1-5.1-0.2-7.6-0.2c-5.4,0-10.8,0.3-16.2,0.8c-4.6,0.4-9.1,1.1-13.6,1.9c-2.8,0.5-5.6,1.1-8.4,1.7c-1.2,0.3-2.5,0.6-3.7,0.9
	c-0.6,0.2-1.2,0.3-1.8,0.5c-2.2,0.8-4.1-0.2-5.6-3C441.3,240.6,439.2,238.5,437.9,239.8L437.9,239.8z"/>
<path class="st1" d="M481.9,293c-14.5-0.6-30.1,3.4-39.6,15c-7.5,9.1-11.7,24.7-3.8,35c8.5,11,27.1,9.1,38.3,4.4
	c11.9-5,24.9-15.3,28.5-28.2c4.5-16.1-10-28.3-25-28.5c-1.9,0-1.9,3,0,3c8.6,0.1,17,3.8,21,11.8c4.2,8.4,0.6,17.3-5,24
	c-8.9,10.7-22.9,18.8-37.2,18.6c-8.5-0.1-18-3.1-20.6-12.1c-2.2-7.3-0.5-15.3,3.3-21.8c8.2-14,25-18.7,40.3-18.1
	C483.9,296.1,483.9,293.1,481.9,293L481.9,293z"/>
<path class="st1" d="M467.7,310.1c-2-0.7-4.3,0.3-5,2.3c-0.2,0.5-0.3,1.1-0.2,1.7c0.3,3.9,4.6,5,7.8,4.8c2.8-0.2,6-1.3,5.1-4.8
	c-0.4-1.2-1.3-2.3-2.4-2.8c-0.9-0.4-1.9-0.5-2.8-0.4c-0.4,0-3.8,1.2-2.3-0.2l-2.4-0.3c0.5,0.5,0.8,1.3,0.7,2c0,0.8,0.7,1.5,1.5,1.5
	c0.3,0,0.5-0.1,0.7-0.2c1-0.4,2.2,0.1,2.6,1.1c0.2,0.4,0.2,0.8,0.1,1.3c-0.2,0.8,0.3,1.6,1.1,1.8c0.6,0.1,1.3-0.1,1.6-0.7
	c1-1.8,2.2-5.4,0.7-7.3c-1-1.3-2.9-0.9-4.1-0.1c-0.7,0.5-1.4,1.1-2.1,1.8c-1.2,1.1-2,1.6-1.5-0.5c0.8-3.7,4.3-6.7,7.6-8.2l-2.2-1.7
	c-1.2,4.3-3.2,8.4-6,11.9l2.6,1.1c-0.1-2.8,1.5-5.4,4.1-6.5h-1.5l0.8,1.3c-0.3,1.9,2.6,2.7,2.9,0.8c0.4-2.5-1.2-5.7-4.1-4.5
	c-3.5,1.4-5.2,5.4-5.2,8.9c0,1.2,1.7,2.1,2.6,1.1c3.2-3.9,5.5-8.4,6.8-13.2c0.2-0.8-0.3-1.6-1.1-1.8c-0.4-0.1-0.8,0-1.1,0.1
	c-3,1.4-5.5,3.6-7.3,6.3c-1.2,2-2.8,5.1-1.5,7.4c0.8,1.5,2.8,2.1,4.3,1.2c0,0,0,0,0,0c0.9-0.5,1.8-1.2,2.5-2c0.4-0.3,0.8-0.9,1.3-1
	c0.4-0.3,0.4-0.1-0.1,0.5c0,1-0.3,2-0.9,2.9l2.7,1.1c0.7-2.7-0.9-5.4-3.6-6.1c-1.2-0.3-2.5-0.2-3.6,0.4l2.3,1.3
	c0-1.3-0.4-2.5-1.1-3.5c-0.4-0.7-1.4-0.9-2.1-0.5c-0.1,0.1-0.2,0.1-0.3,0.2c-1.5,1.6-1.8,4.3,0.1,5.8c1.4,1.1,2.1,0,3.7-0.2
	c5.3-0.7,2.2,1.7,0.3,1.8c-0.8,0.1-1.7,0-2.5-0.2c-2.1-0.7-2.2-1.6-0.4-2.7C468.8,313.8,469.5,310.9,467.7,310.1L467.7,310.1z"/>
<path class="st1" d="M478.3,309.6c1.2,4-3.9,5.3-6.3,6.7c-1.7,0.9-3.2,2.2-4.3,3.8c-2.5,3.4-3.5,7.7-4.3,11.7
	c-0.4,1.9,2.5,2.7,2.9,0.8c0.5-3,1.3-5.9,2.5-8.6c1.8-3.6,4.4-4.8,7.7-6.6s5.8-4.7,4.6-8.6C480.7,307,477.8,307.8,478.3,309.6
	L478.3,309.6z"/>
<path class="st1" d="M467.5,312.1c-1.5,0.2-2.6,1.5-2.5,3c0,1.2,0.8,2,1.3,2.9c1.3,1.9,2.3,4.1,2.9,6.3c0.5,2.1,1,6-0.2,8
	c-2.1,3.7-5.8,3-9,3c-3,0-5.3,1-5.2-3.2c0.1-2.4,1.7-4.7,3-6.6l-2.7-0.4c0.6,3.1,0.9,6.2,0.9,9.3c0,1.4,2.1,2.2,2.8,0.8
	c1.6-3.4,2.9-6.9,3.8-10.5l-3-0.4l0.5,7.6c0,0.8,0.7,1.5,1.5,1.5c0.5,0,1-0.3,1.2-0.7c0.4-0.4,0.6-0.8,0.8-1.4
	c0.1-0.5-0.8-3.6-1.2-2.5l2.9,0.4l0.2-7.2l-3,0.4c0.6,2,0.8,4.2,0.6,6.3c-0.2,1.7,2.6,2,3,0.4l1.9-9.7l-2.7,0.4
	c0.7,1.3,0.8,2.9,0.5,4.3c-0.2,1.9,2.8,1.9,3,0c0.3-2-0.1-4-0.9-5.8c-0.4-0.7-1.4-0.9-2.1-0.5c-0.3,0.2-0.6,0.5-0.7,0.9l-1.9,9.7
	l3,0.4c0.3-2.4,0.1-4.8-0.7-7.1c-0.2-0.8-1.1-1.3-1.9-1c-0.6,0.2-1.1,0.8-1.1,1.4l-0.2,7.2c0,1.8,2.4,2,3,0.4l0.2-0.5
	c0.1-0.5,0-1.1-0.4-1.5c-3.1-3.4-3.7,2-4.8,3.5l2.8,0.8l-0.5-7.6c-0.1-1.6-2.5-2.1-3-0.4c-0.8,3.4-2,6.7-3.5,9.8l2.8,0.8
	c0-3.4-0.4-6.7-1-10.1c-0.3-1.4-2.1-1.3-2.7-0.4c-2,2.9-5.5,9.2-2.8,12.6c2.3,3,9.7,1.8,12.8,1.6c4.9-0.3,6.7-3.4,7.3-8.1
	c0.3-2.2,0.1-4.5-0.4-6.7c-0.3-1.2-3-8.7-3.8-8.5C470.3,314.7,469.4,311.8,467.5,312.1L467.5,312.1z"/>
<path class="st1" d="M459.5,314.2l-8.2,10.8l2.6,1.5l6-8.7l-2.7-1.2l-3,11.4c-0.2,0.8,0.3,1.6,1.1,1.8c0.6,0.1,1.3-0.1,1.6-0.7
	c1.4-2.3,2.9-4.4,4.6-6.4l-2.5-1.5c-0.7,2.6-2,5-3.8,6.9l2.5,1.5c0.2-1.4,0.5-2.7,1.1-4c0.8-1.7-1.7-3.3-2.6-1.5
	c-0.8,1.6-1.8,3.1-2.9,4.5l2.7,0.4l0.6-2.9l-2.7-0.4l0.4,2.5c0.2,0.8,1.1,1.3,1.9,1c0.2-0.1,0.5-0.2,0.6-0.4c2.5-2.6,4.6-5.7,6-9
	h-2.6c0.7,1.3,1.2,2.6,1.4,4c0.4,1.8,2.8,1.1,2.9-0.4c0.4-3.3,0.6-6.7,0.7-10.1h-3v6.3c0,1.6,2.7,2.1,3,0.4c0.2-1.5,0.7-3,1.5-4.3
	h-2.6c0.6,1,1,2.2,1,3.4c0,0.8,0.7,1.5,1.5,1.5s1.5-0.7,1.5-1.5l0.4-2h-2.9c0.3,1.8,1.4,11.7-2.5,10.6c-0.7-0.2-0.9-0.1-0.6,0.1
	l0.9-1.9l2.1-4.4l-2.8-0.8c0.2,2.1,0.4,5-0.9,6.8c-1,1.4-4.1,2-5.6,1.2c-1-0.7-1.9-1.7-2.6-2.7l-2,2c1.7,1.2,4.4,4.2,6.5,4.4
	c1.6,0.1,3-1.2,4.1-2.3c3.3-3.4,5.1-8.1,4.9-12.8c0-0.8-0.7-1.5-1.5-1.5s-1.5,0.7-1.5,1.5v3.4c0,0.8,0.7,1.5,1.5,1.5
	s1.5-0.7,1.5-1.5v-8.4c0-0.8-0.7-1.5-1.5-1.5s-1.5,0.7-1.5,1.5c0,2-0.2,4-0.5,6l3,0.4c-0.2-2.4-0.3-4.8-0.3-7.2
	c0-0.8-0.7-1.5-1.5-1.5c-0.7,0-1.2,0.4-1.4,1.1c-0.5,1.9-1,3.8-1.5,5.7l2.7-0.4l-0.2-0.8c-0.1-1.9-3.1-1.9-3,0
	c0,0.8,0.2,1.6,0.6,2.3c0.6,1.2,2.4,0.8,2.7-0.4c0.6-1.9,1.1-3.8,1.5-5.7l-3-0.4c0,2.4,0.1,4.8,0.3,7.2c0.1,1.5,2.6,2.2,2.9,0.4
	c0.4-2.3,0.6-4.5,0.6-6.8h-3v8.4h3v-3.4h-3c0.2,3.8-1.1,7.5-3.7,10.3c-0.4,0.4-0.8,0.9-1.3,1.2c-0.7,0.7-1.4,0.6-1.9-0.3
	c-1.4-0.6-2.9-2.1-4.1-3s-2.9,0.9-2.1,2c2.3,3.1,5.7,6.5,10,5c4.5-1.6,5.1-7.7,4.8-11.7c-0.1-1.3-2.1-2.2-2.8-0.8
	c-1,2.1-2,4.2-3,6.3c-0.4,0.7-1,1.8-0.9,2.6c0.3,2.2,3.1,1.9,4.7,1.8c6.5-0.5,5.5-9.7,4.7-14.4c-0.2-1.5-2.5-1.3-2.9,0
	c-0.3,0.9-0.5,1.9-0.5,2.8h3c-0.1-1.7-0.6-3.4-1.4-4.9c-0.4-0.7-1.4-0.9-2.1-0.5c-0.2,0.1-0.4,0.3-0.5,0.5c-0.9,1.5-1.5,3.2-1.8,5
	l3,0.4v-6.3c0-0.8-0.7-1.5-1.5-1.5s-1.5,0.7-1.5,1.5c0,3.4-0.2,6.8-0.7,10.1l3-0.4c-0.3-1.6-0.9-3.2-1.7-4.7
	c-0.4-0.7-1.4-0.9-2.1-0.5c-0.2,0.1-0.4,0.3-0.5,0.5c-1.3,3.1-3.2,6-5.5,8.4l2.5,0.7l-0.4-2.5c-0.2-1.3-2.1-1.4-2.7-0.4
	c-1,1.5-1.3,3.4-0.9,5.2c0.2,1.4,2,1.3,2.7,0.4c1.1-1.4,2-2.9,2.9-4.5l-2.6-1.5c-0.7,1.5-1.2,3.1-1.4,4.7c-0.2,1.3,1.4,2.7,2.5,1.5
	c2.1-2.4,3.7-5.2,4.5-8.3c0.4-1.4-1.5-2.6-2.5-1.5c-1.8,2.2-3.5,4.5-5,7l2.7,1.2l3-11.4c0.2-0.8-0.3-1.6-1.1-1.8
	c-0.6-0.1-1.3,0.1-1.6,0.7l-6,8.7c-1.1,1.6,1.5,3,2.6,1.5l8.2-10.8C463.3,314.2,460.7,312.7,459.5,314.2L459.5,314.2z"/>
<path class="st1" d="M597.9,334.6c12-7.3,21.5-18.3,32.1-27.5c11.5-9.9,23.6-19.2,36-27.9c24.1-17,49.5-32.2,74.8-47.4
	c0.7-0.4,0.9-1.4,0.5-2.1c-0.4-0.7-1.3-0.9-2-0.5c-25.3,15.2-50.7,30.4-74.8,47.4c-11.4,8-22.5,16.5-33.2,25.5
	c-11.6,9.8-21.9,22-35,29.9C594.7,333,596.2,335.6,597.9,334.6L597.9,334.6z"/>
<path class="st1" d="M791.1,207.8c-13,1.3-27,4.6-35,16c-6.9,9.8-6.8,26.8-0.3,36.9c7.4,11.4,22.4,11.8,34.1,8.1
	s23.8-10.2,23.7-24.1c-0.1-7.5-2.8-15.3-5.8-22.1c-2.6-5.9-7.2-11-14.1-10.4c-1.9,0.2-1.9,3.2,0,3c9.3-0.9,12.2,10.1,14.5,17.1
	c2,6.5,3.8,14.2,0.7,20.6c-3.1,6.4-10.7,9.7-17.2,12.1c-7,2.5-14.7,4.1-22,2c-14.5-4-18.5-22.4-14.3-35.4
	c4.8-15,21.8-19.4,35.7-20.8C793,210.6,793,207.6,791.1,207.8L791.1,207.8z"/>
<path class="st1" d="M791.1,316.9c-13,1.3-27,4.6-35,16c-6.9,9.8-6.8,26.8-0.3,36.9c7.4,11.4,22.4,11.8,34.1,8.1
	s23.8-10.2,23.7-24.1c-0.1-7.5-2.8-15.3-5.8-22.1c-2.6-5.9-7.2-11-14.1-10.4c-1.9,0.2-1.9,3.2,0,3c9.3-0.9,12.2,10.1,14.5,17.1
	c2,6.5,3.8,14.2,0.7,20.6s-10.7,9.7-17.2,12.1c-7,2.5-14.7,4.1-22,2c-14.5-4-18.5-22.4-14.3-35.4c4.8-15,21.8-19.4,35.7-20.8
	C793,319.7,793,316.7,791.1,316.9L791.1,316.9z"/>
<path class="st1" d="M766.5,240.5l9.5,10.8c0.6,0.6,1.6,0.6,2.1,0c0.2-0.2,0.3-0.4,0.4-0.6c2-5.3,1.6-10.7,2.1-16.2
	c0.5-5.7,2-11.3,4.2-16.6c4.6-10.7,12.4-19.6,22.4-25.6c1.7-1,0.1-3.6-1.5-2.6c-9.8,5.9-17.7,14.5-22.6,24.9c-2.4,5-4.1,10.4-5,15.9
	c-1,6.5-0.1,13.3-2.5,19.5l2.5-0.7l-9.4-10.8C767.3,236.9,765.2,239,766.5,240.5L766.5,240.5z"/>
<path class="st1" d="M583.6,361c51.6-1.6,103.2-1.9,154.8-1c1.9,0,1.9-3,0-3c-51.6-0.9-103.2-0.6-154.8,1
	C581.7,358,581.7,361,583.6,361z"/>
<path class="st1" d="M756.3,337.1c17.6,6.9,34.6,15.4,50.7,25.5c1.6,1,3.2-1.6,1.5-2.6c-16.3-10.1-33.5-18.8-51.3-25.8
	C755.4,333.5,754.6,336.4,756.3,337.1L756.3,337.1z"/>
<path class="st1" d="M800.4,312.8c-17.9,20.8-28.2,47.1-29.4,74.5c-0.1,1.9,2.9,1.9,3,0c1.1-26.6,11.2-52.1,28.5-72.4
	C803.8,313.5,801.7,311.4,800.4,312.8L800.4,312.8z"/>
<path class="st1" d="M394,373.9l111.8-1.5l12.9-0.2c2.3,0,4.6-0.1,6.9-0.1c3.2,0,5.4,2.7,5.4,6c-0.2,7-4.5,6.8-10.3,7l-13.9,0.6
	l-56.6,2.5c-10.1,0.5-20.3,1-30.4,1.4c-9.1,0.3-26.5-2.7-22.5-16c0.6-1.9-2.3-2.6-2.9-0.8c-2,6.5,1.5,13.2,7.2,16.6
	c8.1,4.9,18.8,3.2,27.7,2.8l69.4-3.1l16.9-0.8c4.3-0.2,10.3,0.7,14.3-1.3c4.7-2.4,5.5-11.7,2.5-15.6c-1.5-2-3.6-2.2-6-2.3
	c-6.2-0.2-12.5,0.2-18.8,0.2l-34.6,0.5l-79.1,1C392.1,370.9,392.1,373.9,394,373.9L394,373.9z"/>
<path class="st2" d="M787,611c0,50.2,31.5,90.9,70.5,90.9"/>
<path class="st1" d="M857.5,701.9c0-50.8,35.2-91.9,78.7-91.9"/>
<path class="st1" d="M812.5,615.6c0,47.7,20.1,86.3,44.9,86.3"/>
<path class="st2" d="M857.5,701.9c0-64.9,40.7-117.5,90.9-117.5"/>
<ellipse class="st0" cx="854.4" cy="716.3" rx="17.5" ry="3"/>
<path class="st6" d="M842.6,702.5c0,0,10-0.3,13-2.5s15.4-4.7,16.1-1.3s15,17.1,3.7,17.2s-26.2-1.8-29.2-3.6
	S842.6,702.5,842.6,702.5z"/>
<path class="st7" d="M875.7,714.8c-11.3,0.1-26.2-1.8-29.2-3.6c-2.3-1.4-3.2-6.4-3.5-8.7h-0.3c0,0,0.6,8.1,3.6,9.9
	s17.9,3.7,29.2,3.6c3.3,0,4.4-1.2,4.3-2.9C879.4,714.2,878.2,714.8,875.7,714.8z"/>
<path class="st2" d="M22.5,640.4c0,40,25.1,72.3,56.1,72.3"/>
<path class="st1" d="M78.5,712.7c0-40.4,28-73.1,62.6-73.1"/>
<path class="st1" d="M42.8,644c0,38,16,68.7,35.8,68.7"/>
<path class="st2" d="M78.5,712.7c0-51.7,32.4-93.5,72.3-93.5"/>
<ellipse class="st0" cx="76.1" cy="724.1" rx="13.9" ry="2.4"/>
<path class="st6" d="M66.8,713.2c0,0,7.9-0.2,10.3-2s12.2-3.8,12.8-1s11.9,13.6,3,13.7s-20.9-1.4-23.2-2.8S66.8,713.2,66.8,713.2z"
	/>
<path class="st7" d="M93.1,723c-9,0.1-20.9-1.4-23.2-2.9c-1.8-1.1-2.5-5.1-2.8-6.9h-0.3c0,0,0.5,6.4,2.9,7.9s14.3,2.9,23.2,2.8
	c2.6,0,3.5-0.9,3.4-2.3C96,722.4,95,722.9,93.1,723z"/>
<path class="st8" d="M168.6,484.5l-5.5,48.5c0,0-19.4,47.1-22.2,81.7l-2.8,38.8h18c0,0,23.6-55.4,24.9-70.7l33.2-101.1L168.6,484.5z
	"/>
<path class="st8" d="M239.3,484.5l-5.5,48.5c0,0-19.4,47.1-22.2,81.7l-2.8,38.8h18c0,0,23.6-55.4,24.9-70.7L285,481.7L239.3,484.5z"
	/>
<path class="st8" d="M254.5,372.3l15.2,38.8c0,0-1.4,33.2,16.6,30.5s-2.8-36-2.8-36l-11.1-40.2C272.5,365.3,258.7,362.6,254.5,372.3
	z"/>
<circle class="st8" cx="228.9" cy="223.4" r="24.9"/>
<path class="st8" d="M210.2,231c0,0-8.3,27.7-13.9,27.7s37.4,16.6,37.4,16.6s-11.1-11.1,0-31.9L210.2,231z"/>
<path class="st9" d="M183.9,382l-36,105.3c0,0,12.5,6.9,33.2,6.9s113.6-2.8,115-11.1S267,382,267,382l-5.5-34.6l-67.9,18L183.9,382z
	"/>
<path class="st9" d="M160.3,652.1h-24.9l-4.2,18c0,0-8.3,5.5-5.5,18c2.8,12.5,1.4,38.8,1.4,38.8l27.7,18c0,0,8.3-9.7,2.8-26.3
	L160.3,652.1z"/>
<path class="st9" d="M231,652.1H206l-4.2,18c0,0-8.3,5.5-5.5,18s1.4,38.8,1.4,38.8l27.7,18c0,0,8.3-9.7,2.8-26.3L231,652.1z"/>
<path class="st10" d="M204.6,255.9c0,0,19.2,5.1,24.8,10.9l9.8,5.8l12.5,26.3c0,0,9.7,4.2,9.7,22.2s13.9,48.5,13.9,48.5
	s9.7,8.3,2.8,12.5s-15.2,4.2-15.2,4.2s6.9-26.3-6.9-27.7c-13.9-1.4-20.8-2.8-22.2,0s-38.8,42.9-54,38.8s-6.9-45.7-6.9-45.7l12.5-97
	c0,0,9.7-1.4,15.2,0S204.6,255.9,204.6,255.9z"/>
<path class="st8" d="M157.5,372.3l15.2,38.8c0,0-1.4,33.2,16.6,30.5s-2.8-36-2.8-36l-11.1-40.2C175.6,365.3,161.7,362.6,157.5,372.3
	z"/>
<path class="st10" d="M188,255.9l-2.8-1.4c0,0-8.3-8.3-18,2.8c-9.7,11.1-19.4,69.3-19.4,69.3v18c0,0-11.1,15.2-1.4,23.6
	s11.1,9.7,11.1,9.7s9.7-13.9,20.8-6.9l1.4-5.5c1.1-1.2,2.1-2.6,2.8-4.2c1.4-2.8,4.2,1.4,2.8-2.8s0-5.5,0-6.9s1.4-8.3,1.4-8.3
	l-1.4-42.9L188,255.9z"/>
<path class="st9" d="M260,217.4c0,0,20.3-44.2-32.7-44.1c0,0-32.5-17.1-57.2,22.5l-25.5,41.6l6.5-1.3l0.8,6.5l8.3,5.1l6.3-6.5
	l-1,9.9l71.7,30.4c0,0-27-29.9-16.6-65.2l4.2,8.6L260,217.4z"/>
<ellipse class="st8" cx="216.3" cy="230.4" rx="3.5" ry="7"/>
</svg>
